Coordinates
version=1
nRows=12
nColumns=33
inDegrees=yes

Units are S.I. units (second, meters, Newtons, ...)
Angles are in degrees.

endheader
time	ground_thorax_rot_x	ground_thorax_rot_y	ground_thorax_rot_z	ground_thorax_tx	ground_thorax_ty	ground_thorax_tz	clav_prot_r	clav_elev_r	scapula_abduction_r	scapula_elevation_r	scapula_upward_rot_r	scapula_winging_r	shoulder_elv_r	plane_of_elev_r	axial_rot_r	elbow_flexion_r	pro_sup_r	wrist_flex_r	wrist_dev_r	clav_prot_l	clav_elev_l	scapula_abduction_l	scapula_elevation_l	scapula_upward_rot_l	scapula_winging_l	shoulder_elv_l	plane_of_elev_l	axial_rot_l	elbow_flexion_l	pro_sup_l	wrist_flex_l	wrist_dev_l
      2.03000000	    -37.89607289	     -4.93270058	      6.59408246	    -69.49976704	    782.36158207	      6.42539431	      7.14199350	    -45.00000000	     45.00000000	    -45.00000000	    -15.81885255	  -1887.53196360	  -3531.94507903	     32.62375363	     27.42612270	    727.02721413	     25.34478520	     16.70776173	     14.51699153	     14.26255875	     42.09084428	    -45.00000000	    -39.68894565	    -15.09326966	   2240.67426402	  -2984.70582252	    136.46378539	    179.99999979	  -1073.59934034	     18.65921431	     10.72099721	    -18.11794022
      2.04000000	    -38.10059960	     -4.57058388	      6.00411822	    -71.06495554	    783.06287896	      6.32744237	      6.82491206	    -45.00000000	     45.00000000	    -45.00000000	    -15.12130178	  -1887.61432758	  -3531.77979132	     32.67281466	     27.61134071	    727.46449816	     25.13287911	     16.66935539	     14.57658824	     13.38468632	     41.66344184	    -45.00000000	    -39.68446615	    -13.43783613	   2241.35778378	  -2984.98592437	    136.56442928	    179.99999979	  -1073.69810815	     18.46126525	     10.72963747	    -18.37569680
      2.05000000	    -38.32897195	     -4.36397539	      5.77932494	    -72.91253905	    783.78924295	      6.22469099	      6.76092363	    -45.00000000	     45.00000000	    -45.00000000	    -14.92263052	  -1887.76815595	  -3531.62760471	     32.64126982	     27.87668126	    727.82830176	     24.79825322	     16.83105117	     14.33571281	     13.32152821	     42.30867220	    -45.00000000	    -40.03030250	    -13.22994153	   2241.54375273	  -2984.94436304	    136.57259391	    179.99999979	  -1073.45925048	     18.26657675	     10.58065635	    -18.39522376
      2.06000000	    -38.54617353	     -4.55884835	      6.03170331	    -75.03531750	    784.56840327	      6.12399123	      6.92926875	    -45.00000000	     45.00000000	    -45.00000000	    -15.36756670	  -1887.99116529	  -3531.35807838	     32.64368451	     28.25476295	    728.15391375	     24.26341711	     16.85295074	     14.12184328	     13.55395448	     43.12322244	    -45.00000000	    -40.46768885	    -13.91012241	   2241.55017527	  -2984.65294315	    136.59663688	    179.99999979	  -1073.24661270	     17.85369031	     10.40914735	    -18.42106361
      2.07000000	    -38.74486377	     -4.53076363	      5.93022070	    -77.43476991	    785.42748225	      6.02982282	      6.86726737	    -45.00000000	     45.00000000	    -45.00000000	    -15.34558443	  -1888.23010597	  -3531.10968319	     32.63407768	     28.76209948	    728.56078789	     23.79049523	     16.97025939	     13.90137283	     13.30011286	     43.22739319	    -45.00000000	    -40.70749458	    -13.64152951	   2241.91609242	  -2984.63564533	    136.69530013	    179.99999979	  -1073.07593575	     17.40639923	     10.39512328	    -18.49958892
      2.08000000	    -39.03305314	     -4.77794004	      6.16115928	    -80.11237959	    786.38932932	      5.94310301	      7.11066958	    -45.00000000	     45.00000000	    -45.00000000	    -16.14031386	  -1888.58539970	  -3530.89804432	     32.84963061	     29.38171781	    728.92747209	     23.00986059	     17.00289455	     13.65925885	     14.14173872	     43.67673413	    -45.00000000	    -41.21381770	    -14.61837259	   2242.14747109	  -2984.29950592	    136.43213642	    179.99999979	  -1073.01102858	     16.53610157	     10.10381867	    -18.43359255
      2.09000000	    -39.24611612	     -4.67303223	      5.97804826	    -83.05407160	    787.47339414	      5.86294135	      6.95058791	    -45.00000000	     45.00000000	    -45.00000000	    -15.81139269	  -1888.83734868	  -3530.61257184	     32.71105778	     30.08857599	    729.29552585	     22.52398735	     17.11877750	     13.36987526	     13.47192706	     43.90671412	    -45.00000000	    -41.48617039	    -14.15465599	   2242.48842889	  -2984.30600296	    136.67043917	    179.99999979	  -1072.83110772	     15.94211452	     10.24467768	    -18.52591741
      2.10000000	    -39.48003302	     -4.74045712	      5.99419856	    -86.25091776	    788.69137123	      5.78625874	      6.94219855	    -45.00000000	     45.00000000	    -45.00000000	    -15.94890029	  -1889.19276531	  -3530.35090648	     32.68852876	     30.87763664	    729.66499548	     22.00742223	     17.21386228	     13.04506395	     13.56505718	     44.20805869	    -45.00000000	    -41.86706644	    -14.38566066	   2242.75889810	  -2984.15269101	    136.74313142	    179.99999979	  -1072.66854429	     15.25807453	     10.17524794	    -18.57024288
      2.11000000	    -39.77453169	     -5.15142552	      6.45007866	    -89.68811739	    790.04586485	      5.71086044	      7.29935327	    -45.00000000	     45.00000000	    -45.00000000	    -17.13345369	  -1889.68953285	  -3530.15606561	     32.90332963	     31.63886518	    729.99505426	     21.10476032	     17.24045114	     12.73350587	     14.73418549	     44.53674051	    -45.00000000	    -42.49239950	    -16.03147326	   2242.91749579	  -2983.72173491	    136.42896333	    179.99999979	  -1072.58039111	     13.93162814	      9.87067034	    -18.48061026
      2.12000000	    -40.00405275	     -5.45307089	      6.73719306	    -93.34903745	    791.53354375	      5.63577904	      7.43254079	    -45.00000000	     45.00000000	    -45.00000000	    -17.76378182	  -1890.15306166	  -3529.91693724	     32.94105050	     32.26975908	    730.32652868	     20.16782941	     17.31433275	     12.44490651	     15.26495331	     44.51813105	    -45.00000000	    -43.00608412	    -16.96864954	   2243.12528884	  -2983.56051253	    136.47816556	    179.99999979	  -1072.41213710	     12.38894103	      9.79016110	    -18.45181607
      2.13000000	    -40.24587245	     -5.19017286	      6.37850326	    -97.22312464	    793.14562840	      5.56251512	      7.17971537	    -45.00000000	     45.00000000	    -45.00000000	    -17.16892721	  -1890.43631070	  -3529.66864525	     32.71090627	     32.96712612	    730.57167056	     19.71918324	     17.43986824	     12.12425043	     14.21571511	     45.00000000	    -45.00000000	    -43.31898996	    -16.47109345	   2243.45134236	  -2983.54887917	    136.75646047	    179.99999979	  -1072.28453988	     11.61579856	     10.10793616	    -18.54710201
      2.14000000	    -40.43203314	     -5.23263839	      6.37000133	   -101.30241652	    794.86230954	      5.49591847	      7.09105203	    -45.00000000	     45.00000000	    -45.00000000	    -17.19054636	  -1890.90266424	  -3529.45323275	     32.60301907	     33.57279081	    730.85455725	     19.28813946	     17.58496041	     11.79713203	     14.09781705	     45.00000000	    -45.00000000	    -43.68451427	    -16.65896962	   2243.78290191	  -2983.49850851	    136.95441964	    179.99999979	  -1072.08472910	     10.86921544	     10.13310550	    -18.66163056
